HIERARCHY
ROOT hip
{
	OFFSET 0.000000 0.000000 0.000000 
	CHANNELS 6 Xposition Yposition Zposition Xrotation Zrotation Yrotation
	JOINT abdomen
	{
		OFFSET 0.000000 3.402643 0.000000 
		CHANNELS 3 Xrotation Zrotation Yrotation
		JOINT chest
		{
			OFFSET 0.000000 8.438565 -0.680529 
			CHANNELS 3 Xrotation Zrotation Yrotation
			JOINT neck
			{
				OFFSET 0.000000 10.207942 -0.272212 
				CHANNELS 3 Xrotation Zrotation Yrotation
				JOINT head
				{
					OFFSET 0.000000 3.130431 0.000000 
					CHANNELS 3 Xrotation Zrotation Yrotation
					End Site
					{
						OFFSET 0.000000 3.130435 0.000000 
					}
				}
			}
			JOINT lCollar
			{
				OFFSET 3.470700 6.669187 -0.816635 
				CHANNELS 3 Yrotation Zrotation Xrotation
				JOINT lShldr
				{
					OFFSET 3.198488 0.000000 0.000000 
					CHANNELS 3 Zrotation Yrotation Xrotation
					JOINT lForeArm
					{
						OFFSET 10.139888 0.000000 0.000000 
						CHANNELS 3 Yrotation Zrotation Xrotation
						JOINT lHand
						{
							OFFSET 8.370511 0.000000 0.000000 
							CHANNELS 3 Zrotation Yrotation Xrotation
							End Site
							{
								OFFSET 4.083176 0.000000 0.000000 
							}
						}
					}
				}
			}
			JOINT rCollar
			{
				OFFSET -3.470700 6.669187 -0.816635 
				CHANNELS 3 Yrotation Zrotation Xrotation
				JOINT rShldr
				{
					OFFSET -3.198488 0.000000 0.000000 
					CHANNELS 3 Zrotation Yrotation Xrotation
					JOINT rForeArm
					{
						OFFSET -10.139888 0.000000 0.000000 
						CHANNELS 3 Yrotation Zrotation Xrotation
						JOINT rHand
						{
							OFFSET -8.370511 0.000000 0.000000 
							CHANNELS 3 Zrotation Yrotation Xrotation
							End Site
							{
								OFFSET -4.083176 0.000000 0.000000 
							}
						}
					}
				}
			}
		}
	}
	JOINT lThigh
	{
		OFFSET 5.308129 -1.633274 1.361059 
		CHANNELS 3 Xrotation Zrotation Yrotation
		JOINT lShin
		{
			OFFSET -2.041588 -20.007561 0.000000 
			CHANNELS 3 Xrotation Zrotation Yrotation
			JOINT lFoot
			{
				OFFSET 0.000000 -19.190928 -1.224953 
				CHANNELS 3 Xrotation Yrotation Zrotation
				End Site
				{
					OFFSET 0.000000 -2.449906 4.627600 
				}
			}
		}
	}
	JOINT rThigh
	{
		OFFSET -5.308129 -1.633274 1.361059 
		CHANNELS 3 Xrotation Zrotation Yrotation
		JOINT rShin
		{
			OFFSET 2.041588 -20.007561 0.000000 
			CHANNELS 3 Xrotation Zrotation Yrotation
			JOINT rFoot
			{
				OFFSET 0.000000 -19.190928 -1.224953 
				CHANNELS 3 Xrotation Yrotation Zrotation
				End Site
				{
					OFFSET 0.000000 -2.449906 4.627600 
				}
			}
		}
	}
}
MOTION
Frames: 8
Frame Time: 0.033333
7.860626 42.366169 25.072992 -1.943359 1.572266 -102.655983 23.398438 -2.304688 3.320313 -10.546875 -7.500000 3.828125 -17.490234 4.521484 23.173828 14.072266 7.421875 24.093058 19.492188 -7.900391 -0.175781 -41.943363 -8.066406 17.226563 -120.588463 -1.394945 2.068728 18.266850 21.063122 6.029730 -10.107423 6.992188 -0.185547 58.867188 25.019529 37.890629 124.161530 2.181981 -8.099936 -28.612986 -14.969155 7.149285 -21.513727 9.375095 15.740868 54.756809 -0.249548 -3.029837 -25.239090 -6.486600 -14.952695 -24.802429 -33.404472 -6.514236 40.001816 0.364820 2.392278 -4.553920 5.613253 12.323200 
8.584815 41.814819 23.568312 -1.416016 1.933594 -105.468750 22.871094 -2.304688 3.320312 -10.195313 -8.027345 3.826761 -17.851563 4.580078 23.692190 13.896485 7.773438 24.610697 19.511719 -7.841796 0.011098 -41.035156 -7.939454 15.467401 -120.764450 -1.474600 2.219852 18.579857 20.677544 5.965566 -9.931641 7.334194 -0.147690 58.164059 24.179689 37.587891 122.792114 2.085989 -6.353833 -24.737192 -9.807410 3.959260 -21.430470 11.567514 14.997719 54.552067 -0.071105 -3.454402 -28.812283 -3.395770 -14.016251 -22.671413 -34.786957 -5.131767 39.287224 0.224526 2.652153 -3.971385 4.490594 12.287970 
9.270498 42.009541 21.586235 -0.361328 2.812500 -107.226563 21.806643 -2.548828 3.622613 -10.019530 -6.621094 4.188327 -18.193357 3.359375 23.828699 14.072266 8.124999 24.619139 20.175781 -8.291017 -0.117188 -42.226563 -7.685547 15.330727 -121.533997 -1.250329 4.505626 18.176357 19.743107 5.596364 -10.283202 6.992188 -0.167204 57.021484 20.390625 36.946762 121.403130 1.888046 -3.831295 -21.824158 -1.474330 0.269974 -20.288174 14.954955 15.014151 51.576092 -0.082096 -3.318954 -29.672466 -1.176974 -12.771662 -19.657244 -33.298363 -6.405250 37.878643 0.332057 2.440045 -3.639290 4.302535 12.415291 
10.228935 42.982132 19.261683 1.054687 4.208984 -105.986328 20.947266 -2.470703 3.281250 -10.185547 -6.269532 4.013672 -18.896484 3.164063 23.671877 14.072266 8.476563 24.619141 20.908205 -7.734375 -0.037748 -44.218746 -8.925781 15.291455 -123.097549 -1.295369 4.752625 17.831341 19.776684 5.594229 -10.283202 7.333984 -0.108668 58.007813 13.681641 36.584343 122.107910 2.002221 -4.304229 -15.863021 0.654863 -0.398293 -20.483908 18.675653 12.494810 46.999775 -0.599212 -3.002047 -24.010118 -1.327782 -12.380774 -16.356783 -30.554165 -10.819691 35.603226 0.517449 2.393816 -1.836720 7.333655 12.224589 
11.209107 44.603794 16.707550 2.636719 4.912071 -103.348671 21.123049 -2.607422 3.065962 -10.009766 -6.093750 3.661073 -19.775391 3.144531 23.496632 14.775392 8.291017 24.317814 20.732422 -7.900391 0.000000 -45.976563 -10.156251 15.154530 -122.900635 -1.017764 7.661230 15.152898 17.179077 3.870025 -10.429687 8.056641 -0.128322 59.169922 6.562500 34.922993 121.382027 2.175983 -7.278366 -10.080101 2.290024 -0.552525 -19.283146 22.912947 11.473413 39.446045 -0.936233 -2.879773 -15.088337 -4.794422 -13.278733 -13.007998 -26.875151 -14.732776 31.923628 0.677552 1.946893 3.051980 14.296826 11.516604 
12.241643 46.483620 14.101196 4.042969 5.097657 -99.305771 22.021484 -2.314453 2.597262 -9.843750 -6.621094 3.133640 -20.458984 3.242188 22.783205 16.015627 8.291017 23.868597 20.732422 -7.734375 -0.068359 -47.978516 -11.914063 16.445311 -123.320961 -0.958547 8.919430 16.055815 17.708981 4.412796 -9.570313 8.203125 -0.048828 60.488277 0.263672 32.353516 119.162865 2.483987 -14.560360 -8.821409 -1.655705 0.100947 -18.779510 26.611229 12.070815 31.211472 -1.174667 -2.217409 -1.333331 -10.282557 -12.395219 -9.501958 -23.434448 -20.347630 27.886368 0.669189 1.922321 9.816160 21.538296 8.830722 
13.454896 48.063858 11.576381 5.087891 5.097657 -94.217880 23.613281 -2.197266 2.080078 -10.195313 -7.500000 2.597656 -20.976563 4.179688 21.621096 16.552734 8.466797 23.019014 21.103518 -7.187500 -0.028075 -50.439453 -15.136719 17.900389 -122.300957 -0.785121 12.283485 14.476106 17.580580 3.859005 -8.681641 8.203124 -0.175781 60.859375 -4.462891 29.872286 115.867508 2.583439 -14.955966 -13.063396 -3.686018 0.549411 -20.231129 29.337923 13.568173 24.323362 -1.592706 -1.940241 11.412155 -17.245134 -8.611806 -7.060962 -20.239229 -24.147310 25.430872 0.766439 1.644924 13.320106 23.206562 6.895750 
14.796653 48.955200 9.174376 5.263672 4.912109 -89.305801 25.214842 -2.246094 1.523438 -10.546875 -7.500000 2.070312 -20.957031 4.755859 20.488279 16.552734 7.939454 21.964241 20.927734 -7.343750 0.019531 -52.880863 -17.695313 19.658205 -122.432602 -0.624600 14.171587 16.693594 20.316090 5.218620 -7.314454 7.626953 -0.097656 58.964844 -8.564453 28.182142 113.276695 2.245838 -10.698638 -12.860091 -1.818456 0.201434 -22.654955 29.791977 13.780730 20.811769 -1.426403 -1.744558 12.744282 -17.408630 -8.181781 -6.699389 -18.356497 -23.620945 27.530329 0.776217 1.725823 8.731955 15.551958 9.847530 
